<svg version="1" xmlns="http://www.w3.org/2000/svg" width="1014.667" height="1014.667" viewBox="0 0 761.000000 761.000000"><path d="M262.9 109.5c-.2.2-4.7.6-9.9 1-36.2 2.5-53.8 7-70.3 17.8-4.5 3-11.8 8.9-16.3 13.3-27.9 27.4-50.2 68.1-66 120.4-1.9 6.3-3.7 12.3-4 13.2-.5 1.6.4 1.8 10 1.8 10.4 0 10.6 0 12.2-2.8 20.6-33.4 39.6-55 57.7-65.5 8-4.6 23-10.2 30.5-11.3 2-.3 4.3-.7 5-.9 3.1-1.1 21.3-1.9 43.2-1.9l23.5-.1-.1 3c-.2 4.5-1.4 19.5-1.9 23.5-.2 1.9-.7 6.4-1 10-.3 3.6-.8 8.1-1 10-.2 1.9-.7 6.4-1.1 10-.4 3.6-.8 7.6-.9 9-.4 4.2-3.2 27.2-4 32.5-.2 1.6-.7 5.2-1.1 8-.3 2.7-.8 5.9-1 7-.2 1.1-.7 4-1 6.5-.3 2.5-.8 5.4-1 6.5-.2 1.1-.7 3.6-1 5.5-.7 4.5-5.3 28.9-5.8 31.5-.3 1.1-1.3 6-2.4 11-9.6 44.4-27.2 86-57.7 136.3-1.8 2.9-15.2 22.4-19.4 28.2-19.5 26.9-30.9 48-33.7 62.2-3.7 19.2 3.2 39 18 51.6 18.9 16.1 51.7 19.9 75.3 8.6 19.6-9.3 32-26.4 42.8-59 2.6-7.6 4.9-14.6 5-15.4.2-.8 1.6-6.2 3-12 1.5-5.8 2.9-11.6 3.1-13 .3-1.3 1.4-6 2.4-10.5 1.6-6.7 5.4-25.9 6.5-33 .2-1.1 1.5-8.8 2.9-17 1.4-8.3 2.8-17.5 3.1-20.5.4-3 .8-5.7 1-6 .2-.3.6-3.4 1-7s.8-7.2 1-8c.1-.8.6-4.4 1-8 .4-3.6.9-7.2 1-8 .1-.8.6-4.6 1-8.3.3-3.7.8-7.8 1.1-9 .2-1.2.6-5.3.9-9.2.3-3.8.8-8.1 1-9.5.3-2.3.8-7.2 2-20 .2-2.5.7-6.8 1-9.5.2-2.8.7-8.4 1-12.5.3-4.1.8-8.6 1-10 .2-1.4.6-6.6 1-11.5.3-5 .8-10.8 1-13 .3-2.2.7-7.4 1-11.5.3-4.1.7-10 1-13 .2-3 .7-9.1 1-13.5 1.3-20 1.6-24.3 2-28.1.2-2.3.7-9.2 1-15.5.4-6.3.8-13.7 1-16.4 1.2-18.1 1.8-29.2 1.7-30.8 0-.9.2-1.7.6-1.8.4-.1 28.3-.2 61.9-.3 50.7-.1 61.4.1 61.8 1.2.3.8.3 1.7.1 2-.2.4-.7 4.5-1 9.1-.4 4.6-.9 10-1.1 12-.8 7.4-1.7 16.8-2 21.1-.2 2.5-.6 6.7-.9 9.5-.3 2.7-.8 8.1-1.1 12-.4 3.8-.8 8.6-1 10.5-.2 1.9-.7 6.6-1 10.5-.4 3.8-.8 8.4-1 10.1-.2 1.7-.6 6.6-1 11-.3 4.3-.8 9.3-1 10.9-.2 1.7-.7 6-1 9.5-.3 3.6-.8 9.2-1.1 12.5-.3 3.3-.7 8-.9 10.5-.7 7.4-1.6 17.3-2 21-.2 1.9-.6 6.9-1 11-.3 4.1-.8 9.1-1 11-.2 1.9-.7 6.9-1 11-.4 4.1-.8 9.1-1 11-.2 1.9-.6 7.3-1 12-.3 4.7-.8 10.1-1 12-.2 1.9-.7 7.3-1 12-.3 4.7-.8 11-1 14-.2 3-.7 9.1-1 13.5-.3 4.4-.7 10.5-1 13.5-.7 8.8-1.8 35.6-1.8 46.5-.1 29.2 4.4 51.6 14.5 71.5 6.7 13.4 13.4 21.4 28.1 33.5 8.7 7.2 31.2 17.1 43.2 19 2.2.3 5.8.9 8 1.3 9.1 1.6 44.6.5 47.7-1.4.5-.3 2.1-.8 3.6-1 4.9-.9 17.4-5.6 23.1-8.6 32.7-17.7 54.8-51.6 67.6-103.5 1.5-5.9 2.9-11.9 3.1-13.3.3-1.4 1.1-5.9 1.9-10.2.8-4.2 1.7-10 2-13 .3-2.9.8-6.5 1.1-8.1l.4-2.7h-20.8l-2.2 9.7c-5.1 22.7-11.6 35.5-23.3 46.5-13.3 12.4-34.7 17.5-56.1 13.4-14.3-2.8-30.3-12.3-36-21.5-6.8-10.9-11-28.5-13.3-55.6-1.5-17.5-.7-87.8 1.2-103.1.2-1.6.6-8.3 1-14.9s.9-13.6 1-15.5c.1-1.9.6-8.7.9-15 .4-6.3.9-13.5 1.1-16 .2-2.5.7-9 1-14.5.4-5.5.8-12.5 1-15.5.2-3 .7-10 1-15.5.3-5.5.7-12.5 1-15.5.3-3 .7-9.3 1-14 .4-7.8.7-12.5 2-31 .3-3.6.7-10.7 1-15.9.4-5.2.8-9.7 1-10 .2-.3 30.5-.6 67.5-.6 36.9 0 67.3-.3 67.6-.6.2-.3.4-19.5.5-42.5l.2-41.9-203.5-.2c-112-.1-203.7 0-203.9.2z"/></svg>